<?xml version="1.0" encoding="utf-8"?>
<!-- Generator: Adobe Illustrator 24.1.0, SVG Export Plug-In . SVG Version: 6.00 Build 0)  -->
<svg version="1.1" id="Layer_1" xmlns="http://www.w3.org/2000/svg" xmlns:xlink="http://www.w3.org/1999/xlink" x="0px" y="0px"
	 viewBox="0 0 612 792" style="enable-background:new 0 0 612 792;" xml:space="preserve">
<style type="text/css">
	.st0{fill:#FFFFFF;stroke:#000000;stroke-width:1.0867;stroke-miterlimit:10;}
	.st1{fill:#D9F7F6;stroke:#2E3192;stroke-width:5;stroke-miterlimit:10;}
	.st2{fill:#00C2D1;stroke:#2E3192;stroke-width:5;stroke-miterlimit:10;}
	.st3{fill:#5BC68F;stroke:#5BC68F;stroke-width:5;stroke-miterlimit:10;}
	.st4{fill:none;stroke:#2E3192;stroke-width:5;stroke-miterlimit:10;}
	.st5{fill:none;stroke:#2E3192;stroke-width:7.7744;stroke-miterlimit:10;}
	.st6{fill:#BAB0F3;stroke:#BAB0F3;stroke-width:5;stroke-miterlimit:10;}
	.st7{fill:#F7941D;}
	.st8{fill:#F7941D;stroke:#2E3192;stroke-miterlimit:10;}
	.st9{fill:none;stroke:#2E3192;stroke-width:2;stroke-miterlimit:10;}
	.st10{fill:#4271D6;stroke:#7191E4;stroke-width:5;stroke-miterlimit:10;}
	.st11{fill:#F7941D;stroke:#000000;stroke-width:5;stroke-miterlimit:10;}
	.st12{fill:none;stroke:#000000;stroke-width:5;stroke-miterlimit:10;}
	.st13{fill:#00C2D1;stroke:#4271D6;stroke-width:5;stroke-miterlimit:10;}
	.st14{fill:#7BD3FC;stroke:#2E3192;stroke-width:5;stroke-miterlimit:10;}
	.st15{fill:#00C2D1;stroke:#7191E4;stroke-width:5;stroke-miterlimit:10;}
	.st16{fill:#A97C50;stroke:#8B5E3C;stroke-width:5;stroke-miterlimit:10;}
	.st17{fill:none;stroke:#FBB040;stroke-width:5;stroke-miterlimit:10;}
	.st18{stroke:#000000;stroke-width:4.8792;stroke-miterlimit:10;}
	.st19{fill:#F15A29;stroke:#EF4136;stroke-width:2;stroke-miterlimit:10;}
</style>
<path class="st0" d="M-123,141"/>
<g>
	<path class="st1" d="M233.3,121.6c-25.7,20.4-13,77-13,77s5.5,19.9,26.2,25.8c12.4,3.5,30.3,2,55.8-11.8c0,0,22-27,19-85
		C321.3,127.6,291.3,75.6,233.3,121.6z"/>
	<path class="st2" d="M289.7,218.8l2.6,36.8c-24,23-42,0-42,0l6-29.5"/>
	<polyline class="st3" points="217.2,152.6 209.5,150.6 211.4,142.9 202.7,140.8 200.8,150.2 198.3,158.2 203.7,160.3 207.8,160.3 
		207.8,155.6 217.2,160.3 	"/>
	<polyline class="st3" points="321.6,150.6 328.1,148.4 328.1,140.8 335,140.8 336.8,153.5 336.8,158.9 331,158.9 329.2,154.2 
		321.6,155.6 	"/>
	<path class="st4" d="M238.2,190.1c0,0,20.7,15.6,49.3,0"/>
	<circle class="st5" cx="249.9" cy="146.4" r="8.5"/>
	<circle class="st4" cx="282" cy="146.2" r="5.4"/>
	<path class="st6" d="M307.1,146.2c-9.4,7.9-9.4,27.6-9.4,27.6s1.1,9.1,9.4,1.8c8.3-7.3,7.6-25.7,7.6-25.7S316.5,138.2,307.1,146.2z
		"/>
	<path class="st7" d="M311.3,167.5h-13c-3.2,0-5.9-2.6-5.9-5.9v0c0-3.2,2.6-5.9,5.9-5.9h13c3.2,0,5.9,2.6,5.9,5.9v0
		C317.1,164.8,314.5,167.5,311.3,167.5z"/>
	<circle class="st8" cx="399.1" cy="141.7" r="8.1"/>
	<path class="st9" d="M276.6,100.6c0,0,21-50.8,70.1-39.1s52.4,72.1,52.4,72.1"/>
	<path class="st10" d="M313.9,390.9h-89.2c-6.6,0-12-5.4-12-12c3.4-13.7,6.5-31.6,6.6-52.8c0-5.7-0.1-11.1-0.5-16.3
		c-1-15.6-3.5-29.1-6.2-39.8c0-0.8,0.1-5,3.5-8.5c2.2-2.2,5.2-3.5,8.5-3.5c14.8-0.5,30.1-0.8,45.8-0.8c14.9,0,29.4,0.3,43.4,0.8
		c0.8,0,5,0.1,8.5,3.5c2.2,2.2,3.5,5.2,3.5,8.5c-3.2,10.4-6.2,23.1-7.5,37.7c-2.7,30,2.5,54.8,7.5,71.1
		C325.9,379.7,325.8,384,313.9,390.9z"/>
	<path class="st9" d="M178,323.6"/>
	<path class="st9" d="M357.1,227.8"/>
	<path class="st11" d="M156.3,183.8c0,22.3-18.1,40.4-40.4,40.4S75.6,206,75.6,183.8c0-13.9,7.1-26.2,17.8-33.5
		c6.4-4.4,14.2-6.9,22.6-6.9C138.3,143.4,156.3,161.5,156.3,183.8z"/>
	<path class="st11" d="M91.5,154.9c0,0,12.8,10,14.4,25.3c1,9.2-2.1,20.3-14.4,32.4"/>
	<path class="st11" d="M139.8,212.3c0,0-11.3-11.7-10.7-27.1c0.3-9.3,4.9-19.8,18.8-30.1"/>
	<line class="st12" x1="156.3" y1="183.8" x2="75.6" y2="183.8"/>
	<path class="st13" d="M91.5,227.8h60.2c0,0,4.9,14.3-13.3,20.2h-27.3h-8.6C102.5,247.9,79.2,237,91.5,227.8z"/>
	<path class="st14" d="M219.3,326.2c-77.8,1.8-93.2-20.3-93.2-20.3s-18.6-4.1-14.9-57.9H129c0,0-1.1,29.4,3.4,37.1
		c4.5,7.7,17.7,13.1,25.8,12.2c8.1-0.9,0.2-13.6,19.8-12.2s12.8,15.4,12.8,15.4h26.4"/>
	<path class="st14" d="M319.7,320c0,0,69.9-8.8,87.5,0s45.9,36.6,40,41.9c-5.9,5.3,21.2,5.3,21.2,5.3c8.3-8.3-23.6-50.7-23.6-50.7
		c-30.1-33-60.7-19.6-60.7-19.6s6.5-11.7-16.5-13.5s-17.7,13.5-17.7,13.5h-30.2"/>
	<path class="st15" d="M443.1,364.2c-16.5,7.1-16.5,12.4-16.5,12.4l57.2,8.8c0,0,3.5-20.1-15.3-18.3"/>
	<path class="st16" d="M459.8,338.7l35.2-81.4c0,0-26.8-16.2,6.3-9.4s4.7,13.1,4.7,13.1l-36.2,85l-2.3,7.8"/>
	<path class="st16" d="M465.3,382.6c0,0-19.9,57.2-38.7,83.2c-18.8,26-44.2,3.9-39.4-13.4s47.2-69.8,47.2-69.8l2.5-4.4"/>
	<path class="st17" d="M204.3,500.5l-18.3,50l21.7-19.5v42.7l18.6-39.1l17.3,47.6v-54.3l19.2,32.3c0,0-19.8-40.9-8.3-48.2l3-26.2"/>
	<polyline class="st17" points="282,485.6 276.6,534 292.3,517.5 304.7,555.4 309.3,523.6 336.8,585.3 325.9,518.7 357.1,557.8 
		341.7,512.6 367.3,515.7 325.9,473.7 	"/>
	<circle class="st12" cx="148.6" cy="606.9" r="49.7"/>
	<polygon class="st18" points="148.6,591.3 135.4,600.5 140.4,615.4 156.8,615.4 161.8,600.5 	"/>
	<polygon class="st18" points="122.3,564.8 109,574 114.1,588.9 130.5,588.9 135.5,574 	"/>
	<polygon class="st18" points="173,563.5 159.8,572.7 164.9,587.6 181.2,587.6 186.3,572.7 	"/>
	<polygon class="st18" points="186,603.3 172.8,612.5 177.9,627.4 194.2,627.4 199.3,612.5 	"/>
	<polygon class="st18" points="112.9,612.8 99.6,622 104.7,636.9 121.1,636.9 126.1,622 	"/>
	<polygon class="st18" points="152.3,629.1 139.1,638.3 144.2,653.2 160.5,653.2 165.6,638.3 	"/>
	<polyline class="st19" points="212.7,501.9 208.8,514.2 216.9,509.5 216.9,519.4 224.4,510.6 230,516.6 231.4,508.5 242.1,513.8 
		238.1,495.5 	"/>
	<polyline class="st19" points="293.2,495.5 296.9,507.4 299.2,500.5 309.3,511.9 308.3,500.5 321.9,507.4 316.5,495.5 329,497.3 
		319.7,485.8 	"/>
	<polygon class="st2" points="238.2,292 238.2,270.7 299.2,270.7 297.7,307.4 299.2,323.6 258.4,323.6 258.4,341 299.2,341 
		301.2,364.2 241.4,364.2 238.2,323.6 238.2,308.7 282,306.8 276.6,287.1 253.5,287.1 254.1,295.8 	"/>
	<path class="st2" d="M287.5,390.9c0,0-29.9,66.8-5.5,94.7s43.9-11.9,43.9-11.9s-24-70.7-12-82.7"/>
	<path class="st2" d="M232.3,390.9c0,0-38.6,50.9-34,91.5s64.6,0,64.6,0s-7.3-75.5,6.6-91.5"/>
</g>
</svg>
