<?xml version="1.0" encoding="utf-8"?>
<!-- Generator: Adobe Illustrator 24.1.0, SVG Export Plug-In . SVG Version: 6.00 Build 0)  -->
<svg version="1.1" id="Layer_1" xmlns="http://www.w3.org/2000/svg" xmlns:xlink="http://www.w3.org/1999/xlink" x="0px" y="0px"
	 viewBox="0 0 612 792" style="enable-background:new 0 0 612 792;" xml:space="preserve">
<style type="text/css">
	.st0{fill:#CBF6FF;stroke:#CBF6FF;stroke-width:2.7038;stroke-miterlimit:10;}
	.st1{fill:#C1E153;stroke:#8DC63F;stroke-width:2.7038;stroke-miterlimit:10;}
	.st2{fill:#DAEF9B;stroke:#8DC63F;stroke-width:2.7038;stroke-miterlimit:10;}
	.st3{fill:#F4EAE6;stroke:#EF4136;stroke-width:2.7038;stroke-miterlimit:10;}
	.st4{fill:none;stroke:#A97C50;stroke-width:6;stroke-miterlimit:10;}
	.st5{fill:#FFFFFF;stroke:#000000;stroke-width:0.8212;stroke-miterlimit:10;}
	.st6{fill:#FFF568;stroke:#F7941D;stroke-width:2.267;stroke-miterlimit:10;}
	.st7{fill:#FFF568;stroke:#F7941D;stroke-width:3.0227;stroke-miterlimit:10;}
	.st8{fill:#FFF568;stroke:#F7941D;stroke-width:5.2897;stroke-miterlimit:10;}
	.st9{fill:#FFF568;stroke:#F7941D;stroke-width:6.8011;stroke-miterlimit:10;}
	.st10{fill:#6D93E0;stroke:#FFF88C;stroke-width:6.8011;stroke-miterlimit:10;}
	.st11{fill:#D9F7F6;stroke:#2E3192;stroke-width:1.9581;stroke-miterlimit:10;}
	.st12{fill:#00C2D1;stroke:#2E3192;stroke-width:1.9581;stroke-miterlimit:10;}
	.st13{fill:#5BC68F;stroke:#5BC68F;stroke-width:1.9581;stroke-miterlimit:10;}
	.st14{fill:none;stroke:#2E3192;stroke-width:1.9581;stroke-miterlimit:10;}
	.st15{fill:none;stroke:#2E3192;stroke-width:3.0447;stroke-miterlimit:10;}
	.st16{fill:#BAB0F3;stroke:#BAB0F3;stroke-width:1.9581;stroke-miterlimit:10;}
	.st17{fill:#F7941D;}
	.st18{fill:#F7941D;stroke:#2E3192;stroke-width:0.3916;stroke-miterlimit:10;}
	.st19{fill:none;stroke:#2E3192;stroke-width:0.7833;stroke-miterlimit:10;}
	.st20{fill:#4271D6;stroke:#7191E4;stroke-width:1.9581;stroke-miterlimit:10;}
	.st21{fill:#F7941D;stroke:#000000;stroke-width:1.9581;stroke-miterlimit:10;}
	.st22{fill:none;stroke:#000000;stroke-width:1.9581;stroke-miterlimit:10;}
	.st23{fill:#00C2D1;stroke:#4271D6;stroke-width:1.9581;stroke-miterlimit:10;}
	.st24{fill:#7BD3FC;stroke:#2E3192;stroke-width:1.9581;stroke-miterlimit:10;}
	.st25{fill:#00C2D1;stroke:#7191E4;stroke-width:1.9581;stroke-miterlimit:10;}
	.st26{fill:#A97C50;stroke:#8B5E3C;stroke-width:1.9581;stroke-miterlimit:10;}
	.st27{fill:#FFFFFF;stroke:#FBB040;stroke-width:1.9581;stroke-miterlimit:10;}
	.st28{fill:#FFFFFF;stroke:#000000;stroke-width:1.9581;stroke-miterlimit:10;}
	.st29{stroke:#000000;stroke-width:1.9108;stroke-miterlimit:10;}
	.st30{fill:#F15A29;stroke:#EF4136;stroke-width:0.7833;stroke-miterlimit:10;}
	.st31{fill:#594A42;stroke:#EF4136;stroke-width:2.8289;stroke-miterlimit:10;}
	.st32{fill:#C2B59B;stroke:#000000;stroke-width:2.0926;stroke-miterlimit:10;}
	.st33{fill:#C49A6C;stroke:#000000;stroke-width:2.0926;stroke-miterlimit:10;}
	.st34{fill:none;stroke:#414042;stroke-width:6.2778;stroke-miterlimit:10;}
	.st35{fill:#FFFFFF;stroke:#000000;stroke-width:0.5231;stroke-miterlimit:10;}
	.st36{fill:none;stroke:#000000;stroke-width:0.5231;stroke-miterlimit:10;}
	.st37{fill:#BCBEC0;stroke:#EF4136;stroke-width:2.8289;stroke-miterlimit:10;}
	.st38{fill:none;stroke:#EF4136;stroke-width:2.7038;stroke-miterlimit:10;}
	.st39{fill:#FFFFFF;stroke:#D1D3D4;stroke-width:0.4787;stroke-miterlimit:10;}
</style>
<polygon class="st0" points="0,317.5 0,0 612,0 612,296.9 "/>
<path class="st1" d="M492.6,224c0,0,2.1-113.8,119.4-83v155.9h-37.2L492.6,224z"/>
<path class="st2" d="M0,317.5l389.4-19.2c0,0,21-78,103.2-74.3s82.2,72.9,82.2,72.9H612v227.4l-424.5-85.9L0,470.9V317.5z"/>
<polygon class="st3" points="0,792 612,792 612,524.3 187.5,438.4 0,470.9 "/>
<polyline class="st4" points="0,553.7 173.8,639.9 395.6,552.4 130.4,449.7 "/>
<g>
	<path class="st5" d="M157.6,106.5"/>
	<ellipse class="st6" cx="125.7" cy="96.2" rx="43.9" ry="42.9"/>
	<ellipse class="st7" cx="135.5" cy="80" rx="5.1" ry="5"/>
	<ellipse class="st8" cx="112.7" cy="80" rx="6.1" ry="5.9"/>
	<path class="st7" d="M100.8,106.5c0,0,23.6,20.6,47.1,0"/>
	<path class="st9" d="M72,33.4c0,0,8.5,3.8,18.3,19.9"/>
	<path class="st9" d="M133.1,14.6c0,0,3.2,8.6-1.4,26.7"/>
	<path class="st9" d="M189.8,43.6c0,0-3.9,8.3-20.3,17.9"/>
	<path class="st9" d="M209,103.4c0,0-8.8,3.2-27.3-1.4"/>
	<path class="st9" d="M179.4,159c0,0-8.5-3.8-18.3-19.9"/>
	<path class="st9" d="M118.3,177.8c0,0-3.2-8.6,1.4-26.7"/>
	<path class="st9" d="M61.5,148.7c0,0,3.9-8.3,20.3-17.9"/>
	<path class="st9" d="M42.3,88.9c0,0,8.8-3.2,27.3,1.4"/>
	<path class="st10" d="M56,59c0,0,10.8-1.9,16,9"/>
	<path class="st10" d="M103.3,21.7c0,0,9,6.1,4.8,17.4"/>
	<path class="st10" d="M163.7,28c0,0,2,10.5-9.2,15.7"/>
	<path class="st10" d="M201.8,74.2c0,0-6.2,8.8-17.8,4.7"/>
	<path class="st10" d="M195.4,133.4c0,0-10.8,1.9-16-9"/>
	<path class="st10" d="M148.1,170.7c0,0-9-6.1-4.8-17.4"/>
	<path class="st10" d="M87.7,164.4c0,0-2-10.5,9.2-15.7"/>
	<path class="st10" d="M49.6,118.1c0,0,6.2-8.8,17.8-4.7"/>
</g>
<g>
	<path class="st11" d="M354.7,344.2c-10.1,8-5.1,30.2-5.1,30.2s2.1,7.8,10.2,10.1c4.9,1.4,11.9,0.8,21.9-4.6c0,0,8.6-10.6,7.4-33.3
		C389.1,346.6,377.4,326.2,354.7,344.2z"/>
	<path class="st12" d="M376.7,382.3l1,14.4c-9.4,9-16.4,0-16.4,0l2.3-11.6"/>
	<polyline class="st13" points="348.4,356.4 345.4,355.6 346.1,352.6 342.7,351.7 341.9,355.4 341,358.5 343.1,359.4 344.7,359.4 
		344.7,357.5 348.4,359.4 	"/>
	<polyline class="st13" points="389.3,355.6 391.8,354.7 391.8,351.7 394.5,351.7 395.2,356.7 395.2,358.8 392.9,358.8 392.2,357 
		389.3,357.5 	"/>
	<path class="st14" d="M356.6,371c0,0,8.1,6.1,19.3,0"/>
	<circle class="st15" cx="361.2" cy="353.9" r="3.3"/>
	<circle class="st14" cx="373.7" cy="353.9" r="2.1"/>
	<path class="st16" d="M383.6,353.9c-3.7,3.1-3.7,10.8-3.7,10.8s0.4,3.6,3.7,0.7s3-10.1,3-10.1S387.3,350.7,383.6,353.9z"/>
	<path class="st17" d="M385.3,362.2H380c-1.2,0-2.2-1-2.2-2.2v-0.2c0-1.2,1-2.2,2.2-2.2h5.3c1.2,0,2.2,1,2.2,2.2v0.2
		C387.5,361.2,386.5,362.2,385.3,362.2z"/>
	<circle class="st18" cx="419.6" cy="352.1" r="3.2"/>
	<path class="st19" d="M371.6,336c0,0,8.2-19.9,27.5-15.3c19.2,4.6,20.5,28.2,20.5,28.2"/>
	<path class="st20" d="M386.2,449.7h-34.9c-2.6,0-4.7-2.1-4.7-4.7c1.3-5.4,2.5-12.4,2.6-20.7c0-2.2-0.1-4.4-0.2-6.4
		c-0.4-6.1-1.4-11.4-2.4-15.6c0-0.3,0-2,1.4-3.3c0.9-0.9,2-1.4,3.3-1.4c5.8-0.2,11.8-0.3,17.9-0.3c5.8,0,11.5,0.1,17,0.3
		c0.3,0,2,0,3.3,1.4c0.9,0.9,1.4,2,1.4,3.3c-1.3,4.1-2.4,9.1-2.9,14.8c-1.1,11.7,1,21.5,2.9,27.9C390.9,445.3,390.9,447,386.2,449.7
		z"/>
	<path class="st19" d="M333,423.3"/>
	<path class="st19" d="M403.1,385.8"/>
	<path class="st21" d="M324.5,368.6c0,8.7-7.1,15.8-15.8,15.8s-15.8-7.1-15.8-15.8c0-5.5,2.8-10.3,7-13.1c2.5-1.7,5.6-2.7,8.8-2.7
		C317.4,352.8,324.5,359.8,324.5,368.6z"/>
	<path class="st21" d="M299.1,357.3c0,0,5,3.9,5.6,9.9c0.4,3.6-0.8,8-5.6,12.7"/>
	<path class="st21" d="M318,379.8c0,0-4.4-4.6-4.2-10.6c0.1-3.6,1.9-7.8,7.4-11.8"/>
	<line class="st22" x1="324.5" y1="368.6" x2="292.9" y2="368.6"/>
	<path class="st23" d="M299.1,385.8h23.6c0,0,1.9,5.6-5.2,7.9h-10.7h-3.4C303.5,393.7,294.3,389.4,299.1,385.8z"/>
	<path class="st24" d="M349.2,424.3c-30.5,0.7-36.5-8-36.5-8s-7.3-1.6-5.8-22.7h7c0,0-0.4,11.5,1.3,14.5s6.9,5.1,10.1,4.8
		c3.2-0.4,0.1-5.3,7.7-4.8c7.7,0.5,5,6,5,6h10.3"/>
	<path class="st24" d="M388.5,421.9c0,0,27.4-3.5,34.3,0c6.9,3.5,18,14.3,15.7,16.4s8.3,2.1,8.3,2.1c3.2-3.2-9.2-19.9-9.2-19.9
		c-11.8-12.9-23.8-7.7-23.8-7.7s2.5-4.6-6.5-5.3c-9-0.7-6.9,5.3-6.9,5.3h-11.8"/>
	<path class="st25" d="M436.8,439.2c-6.5,2.8-6.5,4.9-6.5,4.9l22.4,3.5c0,0,1.4-7.9-6-7.2"/>
	<path class="st26" d="M443.3,429.2l13.8-31.9c0,0-10.5-6.3,2.5-3.7s1.9,5.1,1.9,5.1l-14.2,33.3l-0.9,3.1"/>
	<path class="st26" d="M445.5,446.4c0,0-7.8,22.4-15.2,32.6s-17.3,1.5-15.4-5.2c1.9-6.8,18.5-27.3,18.5-27.3l1-1.7"/>
	<path class="st27" d="M343.3,492.6l-7.2,19.6l8.5-7.6v16.7l7.3-15.3l6.8,18.6v-21.3l7.5,12.7c0,0-7.8-16-3.3-18.9l1.2-10.3"/>
	<polyline class="st27" points="373.7,486.8 371.6,505.7 377.8,499.3 382.6,514.1 384.4,501.7 395.2,525.8 390.9,499.7 403.1,515 
		397.1,497.4 407.1,498.6 390.9,482.1 	"/>
	<circle class="st28" cx="321.5" cy="534.3" r="19.5"/>
	<polygon class="st29" points="321.5,528.2 316.3,531.8 318.3,537.6 324.7,537.6 326.7,531.8 	"/>
	<polygon class="st29" points="311.2,517.8 306,521.4 308,527.2 314.4,527.2 316.4,521.4 	"/>
	<polygon class="st29" points="331.1,517.3 325.9,520.9 327.9,526.7 334.3,526.7 336.2,520.9 	"/>
	<polygon class="st29" points="336.2,532.9 331,536.5 332.9,542.3 339.4,542.3 341.3,536.5 	"/>
	<polygon class="st29" points="307.5,536.6 302.3,540.2 304.3,546 310.7,546 312.7,540.2 	"/>
	<polygon class="st29" points="323,543 317.8,546.6 319.8,552.4 326.2,552.4 328.1,546.6 	"/>
	<polyline class="st30" points="346.6,493.2 345.1,498 348.2,496.1 348.2,500 351.2,496.6 353.4,498.9 353.9,495.7 358.1,497.8 
		356.6,490.7 	"/>
	<polyline class="st30" points="378.1,490.7 379.6,495.3 380.5,492.6 384.4,497.1 384,492.6 389.4,495.3 387.2,490.7 392.1,491.4 
		388.5,486.8 	"/>
	<polygon class="st12" points="356.6,410.9 356.6,402.6 380.5,402.6 379.9,417 380.5,423.3 364.5,423.3 364.5,430.1 380.5,430.1 
		381.3,439.2 357.9,439.2 356.6,423.3 356.6,417.5 373.7,416.7 371.6,409 362.6,409 362.8,412.4 	"/>
	<path class="st12" d="M375.9,449.7c0,0-11.7,26.2-2.2,37.1c9.5,10.9,17.2-4.7,17.2-4.7s-9.4-27.7-4.7-32.4"/>
	<path class="st12" d="M354.3,449.7c0,0-15.1,19.9-13.3,35.8c1.8,15.9,25.3,0,25.3,0s-2.9-29.6,2.6-35.8"/>
</g>
<g>
	<path class="st31" d="M74.2,306.8c0,0-7.4,89.7-5.5,151.3c0,0,10.1,5.5,19.8,0c0,0-6-82.7,3.6-152.5"/>
	<polyline class="st32" points="32.7,228.4 153,224 149.5,302 28.1,309.7 	"/>
	<polygon class="st33" points="22.5,229.3 18.7,309.7 28.1,309.7 31.8,229.3 	"/>
	<rect x="71.8" y="246.3" class="st34" width="40.5" height="40.5"/>
	<path class="st35" d="M71.8,292.2c0,0,15,32.2,12,44.6l3-2.7l1.5,2.7l2.2-2.7l1.6,2.7l2.6-2.7l2.1,2.7l2-2.7l2.2,2.7l1.5-3.3
		l2.1,3.3l1.5-3.6l2.7,3.6l1.5-3.6l2.1,3.6c0,0,2.3-38.6,13.3-44.6C125.7,292.2,100.4,303.8,71.8,292.2z"/>
	<line class="st35" x1="103.9" y1="298.3" x2="112.4" y2="336.7"/>
	<polyline class="st36" points="119,296.9 106.1,333.1 95.5,298.3 	"/>
	<polyline class="st36" points="110.9,298.3 98.8,334 86.2,296.9 83.8,336.7 	"/>
	<polyline class="st36" points="98.8,296.9 90.5,334 78.1,296.9 	"/>
	<ellipse class="st37" cx="98.8" cy="292.2" rx="26.9" ry="4.7"/>
</g>
<path class="st38" d="M0,331.8"/>
<path class="st3" d="M-441.1,509.8"/>
<path class="st0" d="M703.6,11.5"/>
<path class="st4" d="M173.8,639.9c0,0,395.6,113.9,221.8-87.5"/>
<path class="st39" d="M445.3,73.5c1.8,2.3,2.8,4.8,2.8,7.5c0,9.8-13.4,17.7-29.9,17.7c-11.7,0-21.9-4-26.8-9.8
	c-2.2,0.3-4.4,0.4-6.7,0.4c-17.1,0-30.9-7.9-30.9-17.6c0-6.6,6.3-12.3,15.6-15.3c-0.5-0.9-0.7-1.9-0.7-2.8
	c0-7.1,12.9-12.9,28.8-12.9c14.5,0,26.4,4.8,28.5,11h0.1c14.6,0,26.5,5.8,26.5,12.9C452.6,68,449.8,71.1,445.3,73.5z"/>
</svg>
